<svg xmlns="http://www.w3.org/2000/svg" viewBox="0 0 1093.06 618.89"><defs><style>.cls-1{fill:#767472;opacity:0.28;}.cls-2{fill:#414042;stroke-linejoin:round;stroke-width:5px;}.cls-2,.cls-3{stroke:#414042;stroke-linecap:round;}.cls-3{fill:none;stroke-miterlimit:10;stroke-width:8px;}</style></defs><title>angry</title><g id="Layer_2_copy_2" data-name="Layer 2 copy 2"><circle cx="63.12" cy="216.76" r="15.67"/><circle class="cls-1" cx="10.94" cy="151.76" r="10.94"/><circle class="cls-1" cx="158.18" cy="152.92" r="10.94"/><path class="cls-2" d="M800.17,196.85s-3.22,20.25-3,22.3,20.86,2.8,34.05,2,42.43,3.17,50.59,6.28,22.61,8.21,26.25,7.37,2.88-9.39-.89-11.72S880.69,202.1,800.17,196.85Z" transform="translate(180.12 -74.11)"/><path class="cls-2" d="M866.39,119.07s-6.65,19.4-7.82,21.1-19.73-7.31-31-14.16-39-17.1-47.63-18.18-23.82-3.35-26.64-5.8,1.86-9.64,6.29-9.94S792.81,85.94,866.39,119.07Z" transform="translate(180.12 -74.11)"/></g><g id="Layer_6" data-name="Layer 6"><path class="cls-3" d="M183.26,298.6s44-66.5,97,0m-90.41,13.27s36,30.5,81.5,7.5m174-19.77s-44-66.5-97,0m9.09,20.77c45.5,23,81.5-7.5,81.5-7.5m-161-36.79c-25.67-30.33-39-26.67-46.42-24.67s-45.92,27.33-45.92,27.33m258.36,2s-38.5-25.33-45.92-27.33-20.75-5.67-46.42,24.67m-53.37-8s-14.66,55.89-16.49,61.89-22.83,28-22.83,32.67,6.33,19.67,13.33,21.67,16.69-2.8,16.69-2.8M390.27,276.63a19.3,19.3,0,1,0,19.3,19.3A19.3,19.3,0,0,0,390.27,276.63Zm-148.12,0a19.3,19.3,0,1,0,19.3,19.3A19.3,19.3,0,0,0,242.15,276.63Zm97.61,106.83s9.69,4.8,16.69,2.8,13.33-17,13.33-21.67-21-26.67-22.83-32.67-9.19-41.06-9.19-41.06M273.94,375.6l4,5,16.67,3.33h3.67l3.67,5.33-6.67-11-8.67-4.67Zm68.18-2-8.67,4.67-6.67,11,3.67-5.33h3.67l16.67-3.33,4-5Zm-39.43,25.64s11.62,7.67,23.33,0M146.55,386.64c6.74,3,13.67-3.8,11-10.68-14-36.56-42.59-136.87,27.78-214.45.16-.18.32-.34.5-.51,4.42-4.16,62-56.33,121.71-7.09a8.38,8.38,0,0,0,10.44.18c7.63-5.84,24.15-15.54,51.77-17.83,40.14-3.33,76.48,25,95.14,59.33s8.59,136.61,5.59,153.24-3.33,26.22.67,21.76,25.41-58.62,29.08-83.31l-3.43,25.35c-.83,8.06,6.64,4.57,14.53,6.39,5.65,1.3,14.61-18.37,15.23-50,.62-32-20.3-160.27-144.42-186.73l-.52-.09c-3.33-.51-37-5.25-56.84,8.61a8.22,8.22,0,0,1-9.39-.07c-9.26-6.48-31.49-18.09-63.5-9.73,0,0-32.33,9.42-49.39,23.48a8.62,8.62,0,0,1-2.73,1.55c-10.82,3.64-76.16,30.46-98.72,121.5C80.83,309.29,146.55,386.64,146.55,386.64ZM306.77,404.1s-6.16,30.5-4.09,32,21.09,1,23.33,0-4.09-32-4.09-32M229.7,454.77s-18.5,35-18,38,17.51,20.5,17.51,20.5m171.43,2.81s17-17.5,17.51-20.5-18-38-18-38m3.62,29.91L394.28,492s-33.52-16.4-79.91-16.32c-43.4.07-78.08,16.67-78.08,16.67l-10-3m167.06-1.19s-13-40.66-79.23-40.47c-64.82.19-78.77,40.47-78.77,40.47m79.91-14.61V451.83m-30,25.64V455.72m60,21.75V455.72M366.76,482V460.22M260.76,482V460.22m-12.42,44.06s31.9,18,64.34,18,69.5-15.51,69.5-15.51M112.74,304.12s-6-6-19,0-21,31-21,31,6.46,55.95,40,82.47c0,0,7,22.74,25.14,19.77M545.09,332.52s-11.5-22-16-24-18.5,9.81-18.5,9.81M502.26,373s6-5.65,6.5-11.35-4.5-11.81-4.5-11.81m-2,56.94s1.22-3.75,15.57-14.5l13.43-19M116.21,324.27s-14-11.81-18.5-9.81-16,24-16,24m42.12,17.27s-5,6.11-4.5,11.81,6.5,11.35,6.5,11.35m-32.27-7.42,13.43,19c14.34,10.75,15.57,14.5,15.57,14.5m368,30.57c18.13,3,24.19-19.77,24.19-19.77,33.52-26.53,40-82.47,40-82.47s-8-25-21-31a38.16,38.16,0,0,0-25.56-1.85m-377.69,8.81s10.55,22.55,23.39,27.89m344.44-33.93c9.56-10.1,11.59-36.86,11.59-36.86M118.32,292.8s4.53,26.44,15,35.6M411.69,420c28.73,7.14,47-9.27,38.3-7.24s-64.11-6.45-64.11-6.45S383,412.83,411.69,420ZM242.19,406.2c1.61-.25-54.38,8.73-64.11,6.45-8.68-2,9.57,14.38,38.3,7.24S242.19,406.2,242.19,406.2ZM399,269.78c70.78,7.92,114.13-36.52,93.07-29s-157.2,4.72-157.2,4.72S328.2,261.86,399,269.78ZM299.17,246.6S163,249.38,142,241.89s22.29,37,93.07,29S299.17,246.6,299.17,246.6ZM316.91,689c15.07,0,84.78-60.39,84.78-60.39-2.09,54.67,46.17-25.32,46.17-25.32,20.91,31.5,56.09,7,55.14,2s-15.05-14-23.39-26.5,3.84-16.28,3.84-16.28c16.5,27.56,57.5,1.94,39.5,0S500.12,512,500.12,512l-1.86-139.26c-5.66,74.93-37.14,64.51-37.14,64.51l-71.2-31a7.08,7.08,0,0,0-8.68,2.32,6.48,6.48,0,0,0,2.87,9.81c115.71,46.2,22.52,125.06-12.11,140.64-32.77,14.74-35.51-12.89-55.83-15.07v-.06c-.8-.06-1.57-.09-2.33-.08s-1.53,0-2.33.08V544c-20.33,2.19-23.06,29.81-55.83,15.07-34.63-15.58-127.8-94.41-12.17-140.61a6.48,6.48,0,0,0,4.13-6.46,6.91,6.91,0,0,0-9.64-5.8l-71.44,31.07s-29.52,7.19-35.18-67.74L127.56,512s-4.83,48.54-22.83,50.48,23,27.56,39.5,0c0,0,12.19,3.78,3.84,16.28s-22.44,21.5-23.39,26.5,34.24,29.5,55.14-2c0,0,48.26,80,46.17,25.32,0,0,72.09,60.39,87.17,60.39ZM466.5,406.83l-13-5.89m16.2-4.65,13,5.89m-26.81,15.45,13,5.89m-30-5.89-13-5.89M393.36,542.11l-13-5.89m22.71-7,13,5.89m-66.92,2.73,9.25,10.87M377.47,429.4l-13-5.89m-10.7-14.72,13,5.89M497,381.83l-13-5.89m-7.82,8.44-13-5.89M333.85,258.22,326.44,246m127,71.15-13-5.89M178.3,399.21l-13,5.89m-3.2-10.54-13,5.89m26.81,15.45-13,5.89m42-10.78-13,5.89m75.44,4.89-13,5.89M278,407.06l-13,5.89M147.77,374.21l-13,5.89m33.82-3.34-13,5.89M309.08,246.16l-7.84,11.93M188.76,311.35l-13,5.89M256.58,535.1l-13,5.89m-9.71-12.85-13,5.89m66.92,2.73-9.25,10.87m37.92-24.13.2,11.54M305.9,523.5l.2,11.54m20.59-11.54.2,11.54M510.59,427.67S474,473,484,504.28s66.85.38,61.07,0C498.85,501.22,510.59,427.67,510.59,427.67Zm8.71-169.72s-36.59,45.33-26.57,76.61,66.85.38,61.07,0C507.57,331.5,519.31,257.95,519.31,257.95Zm-22.79-30.44s-7,57.83,18.06,79,56.9-35.09,51.79-32.36C525.53,296.11,496.52,227.51,496.52,227.51ZM58.46,271.21c-5.1-2.74,26.71,53.57,51.79,32.36s18.06-79,18.06-79S99.29,293.12,58.46,271.21ZM85,506.31c-5.78.38,51,31.28,61.07,0s-26.57-76.61-26.57-76.61S131.25,503.25,85,506.31ZM76.86,337.85c-5.78.38,51,31.28,61.07,0s-26.57-76.61-26.57-76.61S123.1,334.79,76.86,337.85Z" transform="translate(180.12 -74.11)"/></g></svg>