<svg id="Layer_2_copy" data-name="Layer 2 copy" xmlns="http://www.w3.org/2000/svg" viewBox="0 0 612 792"><defs><style>.cls-1{fill:none;stroke:#414042;stroke-linecap:round;stroke-miterlimit:10;stroke-width:8px;}</style></defs><title>clean</title><path class="cls-1" d="M183.26,298.6s44-66.5,97,0m-90.41,13.27s36,30.5,81.5,7.5m174-19.77s-44-66.5-97,0m9.09,20.77c45.5,23,81.5-7.5,81.5-7.5m-161-36.79c-25.67-30.33-39-26.67-46.42-24.67s-45.92,27.33-45.92,27.33m258.36,2s-38.5-25.33-45.92-27.33-20.75-5.67-46.42,24.67m-53.37-8s-14.66,55.89-16.49,61.89-22.83,28-22.83,32.67,6.33,19.67,13.33,21.67,16.69-2.8,16.69-2.8M390.27,276.63a19.3,19.3,0,1,0,19.3,19.3A19.3,19.3,0,0,0,390.27,276.63Zm-148.12,0a19.3,19.3,0,1,0,19.3,19.3A19.3,19.3,0,0,0,242.15,276.63Zm97.61,106.83s9.69,4.8,16.69,2.8,13.33-17,13.33-21.67-21-26.67-22.83-32.67-9.19-41.06-9.19-41.06M273.94,375.6l4,5,16.67,3.33h3.67l3.67,5.33-6.67-11-8.67-4.67Zm68.18-2-8.67,4.67-6.67,11,3.67-5.33h3.67l16.67-3.33,4-5Zm-39.43,25.64s11.62,7.67,23.33,0M312.93,158.6s16.71-19,56.86-22.33,76.48,25,95.14,59.33,25.67,94.42,22.67,111-3.33,26.22.67,21.76,8.33-16.42,12-41.11l-2,19.35S522.78,295,526.59,269c4.67-31.71-20.33-160.44-144.67-186.78,0,0-42-7-61.67,12.33,0,0-25.33-24.8-68.33-13.57,0,0-34,9.9-50.67,24.57,0,0-85,25.67-100.33,122.67,0,0-9,109.67,62.67,109.33,0,0-66-79.67,22-176.33C185.59,161.26,248.93,99.26,312.93,158.6Zm28.81,64s.11,20.51.67,22.49,21-.63,33.93-3.52,42.38-3.77,50.94-2,23.64,4.43,27.1,3,1.32-9.73-2.79-11.42S422,214.73,341.74,222.64ZM183.5,229.39c-4.13,1.63-6.39,9.91-3,11.38s18.56-1,27.14-2.61,38.05-.31,50.9,2.76,33.29,6,33.88,4,1-22.48,1-22.48C213.29,213.38,187.63,227.75,183.5,229.39ZM306.77,404.1s-6.16,30.5-4.09,32,21.09,1,23.33,0-4.09-32-4.09-32m-92.73,13.06s-17,17.5-17.51,20.5,18,38,18,38m170.45-.81s18.5-35,18-38-17.51-20.5-17.51-20.5M226.29,443l10-3s34.68,16.6,78.08,16.67c46.4.08,79.91-16.32,79.91-16.32l9.49,4.52m-168.41-.7s13.95,40.28,78.77,40.47c66.23.2,79.23-40.47,79.23-40.47m-78.09,14.61V480.6m-30-25.64v21.75m60-21.75v21.75m21.5-26.25v21.75m-106-21.75v21.75m-19.61-2.49s37.3,42.88,73.2,42.88,74.92-40.39,74.92-40.39M112.74,304.12s-6-6-19,0-21,31-21,31,6.46,55.95,40,82.47c0,0,7,22.74,25.14,19.77m-4.5-108.17-2.93,59.21c8,104.78,74.5,175.22,74.5,175.22,17,41,45.5,66.5,65.45,70.58a61.63,61.63,0,0,0,36.38-4.08h15.16a61.63,61.63,0,0,0,36.38,4.08c19.95-4.08,48.45-29.58,65.45-70.58,0,0,66.5-70.44,74.5-175.22l-3.65-73.69m50.49,17.84s-11.5-22-16-24-18.5,9.81-18.5,9.81M502.26,373s6-5.65,6.5-11.35-4.5-11.81-4.5-11.81m-2,56.94s1.22-3.75,15.57-14.5l13.43-19M116.21,324.27s-14-11.81-18.5-9.81-16,24-16,24m42.12,17.27s-5,6.11-4.5,11.81,6.5,11.35,6.5,11.35m-32.27-7.42,13.43,19c14.34,10.75,15.57,14.5,15.57,14.5m368,30.57c18.13,3,24.19-19.77,24.19-19.77,33.52-26.53,40-82.47,40-82.47s-8-25-21-31a38.16,38.16,0,0,0-25.56-1.85m-377.69,8.81s10.55,22.55,23.39,27.89m344.44-33.93c9.56-10.1,11.59-36.86,11.59-36.86M118.32,292.8s4.53,26.44,15,35.6"/></svg>